<?xml version="1.0" encoding="UTF-8" standalone="no"?>
<svg
   id="flag-icons-us"
   viewBox="0 0 500 500"
   version="1.1"
   sodipodi:docname="en.svg"
   width="500"
   height="500"
   inkscape:version="1.4.2 (ebf0e940d0, 2025-05-08)"
   xmlns:inkscape="http://www.inkscape.org/namespaces/inkscape"
   xmlns:sodipodi="http://sodipodi.sourceforge.net/DTD/sodipodi-0.dtd"
   xmlns="http://www.w3.org/2000/svg"
   xmlns:svg="http://www.w3.org/2000/svg">
  <defs
     id="defs5" />
  <sodipodi:namedview
     id="namedview5"
     pagecolor="#ffffff"
     bordercolor="#000000"
     borderopacity="0.25"
     inkscape:showpageshadow="2"
     inkscape:pageopacity="0.0"
     inkscape:pagecheckerboard="0"
     inkscape:deskcolor="#d1d1d1"
     inkscape:zoom="0.34227084"
     inkscape:cx="1244.6284"
     inkscape:cy="170.91728"
     inkscape:window-width="1920"
     inkscape:window-height="1052"
     inkscape:window-x="0"
     inkscape:window-y="0"
     inkscape:window-maximized="1"
     inkscape:current-layer="flag-icons-us" />
  <path
     id="path1"
     style="fill:#bd3d44;fill-opacity:1;stroke-width:1"
     d="M 250,0 A 250,250 0 0 0 0,250 250,250 0 0 0 250,500 250,250 0 0 0 500,250 250,250 0 0 0 250,0 Z" />
  <path
     id="path12"
     style="baseline-shift:baseline;display:inline;overflow:visible;vector-effect:none;fill:#ffffff;enable-background:accumulate;stop-color:#000000"
     d="M 116.35156,38.722656 A 250,250 0 0 0 70.019531,76.486328 H 429.98047 A 250,250 0 0 0 383.64844,38.722656 Z M 39.267578,115.49414 A 250,250 0 0 0 19.478516,153.25586 H 480.52148 A 250,250 0 0 0 460.73242,115.49414 Z M 6.6835938,192.57617 A 250,250 0 0 0 0.7734375,230.33984 H 499.22656 a 250,250 0 0 0 -5.91015,-37.76367 z m -5.9101563,77.08399 a 250,250 0 0 0 5.9101563,37.76367 H 493.31641 a 250,250 0 0 0 5.91015,-37.76367 z m 18.7050785,77.08398 a 250,250 0 0 0 19.789062,37.76172 H 460.73242 a 250,250 0 0 0 19.78906,-37.76172 z m 50.841796,77.08203 a 250,250 0 0 0 46.527348,37.76367 h 266.30468 a 250,250 0 0 0 46.52735,-37.76367 z" />
  <path
     id="path3"
     style="fill:#192f5d;fill-opacity:1;stroke-width:1"
     d="M 250,0 A 250,250 0 0 0 0,250 250,250 0 0 0 0.74414062,269.27148 H 364.80078 V 27.916016 A 250,250 0 0 0 250,0 Z" />
  <marker
     id="us-a"
     markerHeight="30"
     markerWidth="30"
     transform="translate(0,20)">
    <path
       fill="#ffffff"
       d="M 14,0 23,27 0,10 H 28 L 5,27 Z"
       id="path4" />
  </marker>
  <path
     id="path10"
     style="fill:#ffffff;fill-opacity:1;fill-rule:evenodd;stroke:none;stroke-width:3;stroke-linecap:round;stroke-linejoin:round;stroke-miterlimit:10;stroke-dasharray:none;paint-order:fill markers stroke"
     d="m 212.37305,10.935547 -3.33789,10.09375 -10.62891,-0.05273 8.54492,6.355469 -3.55078,10.654297 8.99805,-6.675781 9.08008,6.773437 -3.63282,-10.779296 8.54688,-6.300782 -10.68164,-0.02734 z m 60.80273,0 -3.33789,10.09375 -10.62695,-0.05273 8.54492,6.355469 -3.55274,10.654297 9,-6.675781 9.08008,6.773437 -3.63281,-10.779296 8.54492,-6.300782 -10.68164,-0.02734 z m 59.72852,3.210937 -2.26172,6.841797 -10.62891,-0.05273 8.54492,6.355469 -3.55078,10.654296 9,-6.675781 9.08008,6.773438 -3.63281,-10.779297 8.54492,-6.300781 -10.68164,-0.02734 -1.9668,-5.914063 a 250,250 0 0 0 -2.44726,-0.875 z m -178.63672,4.908204 a 250,250 0 0 0 -12.03516,5.365234 l 3.91406,2.912109 -3.55078,10.654297 9,-6.675781 9.08008,6.773437 -3.63281,-10.779296 8.54492,-6.300782 -10.68164,-0.02734 z m -33.50391,18.861328 -3.33789,10.09375 -10.62695,-0.05469 8.54492,6.355469 -3.55273,10.65625 9,-6.675781 9.08007,6.771484 -3.63281,-10.777344 8.54492,-6.302734 -10.68164,-0.02734 z m 60.80469,0 -3.33789,10.09375 -10.62891,-0.05469 8.54492,6.355469 -3.55078,10.65625 9,-6.675781 9.08008,6.771484 -3.63281,-10.777344 8.54492,-6.302734 -10.68164,-0.02734 z m 60.80469,0 -3.33789,10.09375 -10.62891,-0.05469 8.54492,6.355469 -3.55078,10.65625 8.99805,-6.675781 9.08008,6.771484 -3.63282,-10.777344 8.54688,-6.302734 -10.68164,-0.02734 z m 60.80273,0 -3.33789,10.09375 -10.62695,-0.05469 8.54492,6.355469 -3.55274,10.65625 9,-6.675781 9.08008,6.771484 -3.63281,-10.777344 8.54492,-6.302734 -10.68164,-0.02734 z m 30.80469,26.978515 -3.33789,10.09375 -10.62891,-0.05273 8.54492,6.355469 -3.55078,10.654296 9,-6.675781 9.08008,6.773438 L 339.45508,81.263672 348,74.962891 337.31836,74.935547 Z m -243.216798,0.04102 -3.337891,10.09375 -10.626953,-0.05273 8.544922,6.355469 -3.552734,10.654297 9,-6.675781 9.080078,6.773437 -3.632813,-10.779296 8.544919,-6.300782 -10.681638,-0.02734 z m 60.804688,0 -3.33789,10.09375 -10.62891,-0.05273 8.54492,6.355469 -3.55078,10.654297 9,-6.675781 9.08008,6.773437 -3.63281,-10.779296 8.54492,-6.300782 -10.68164,-0.02734 z m 60.80469,0 -3.33789,10.09375 -10.62891,-0.05273 8.54492,6.355469 -3.55078,10.654297 8.99805,-6.675781 9.08008,6.773437 -3.63282,-10.779296 8.54688,-6.300782 -10.68164,-0.02734 z m 60.80273,0 -3.33789,10.09375 -10.62695,-0.05273 8.54492,6.355469 -3.55274,10.654297 9,-6.675781 9.08008,6.773437 -3.63281,-10.779296 8.54492,-6.300782 -10.68164,-0.02734 z M 59.960938,91.91602 l -3.337891,10.09375 -8.083985,-0.041 a 250,250 0 0 0 -0.890624,1.2168 l 6.890624,5.125 -3.550781,10.65625 8.998047,-6.67578 9.080078,6.77148 -3.632812,-10.77734 8.546875,-6.30274 -10.681641,-0.0273 z m 60.802732,0 -3.33789,10.09375 -10.62695,-0.0547 8.54492,6.35547 -3.55273,10.65625 9,-6.67578 9.08007,6.77148 -3.63281,-10.77734 8.54492,-6.30274 -10.68164,-0.0273 z m 60.80469,0 -3.33789,10.09375 -10.62891,-0.0547 8.54492,6.35547 -3.55078,10.65625 9,-6.67578 9.08008,6.77148 -3.63281,-10.77734 8.54492,-6.30274 -10.68164,-0.0273 z m 60.80469,0 -3.33789,10.09375 -10.62891,-0.0547 8.54492,6.35547 -3.55078,10.65625 8.99805,-6.67578 9.08008,6.77148 -3.63282,-10.77734 8.54688,-6.30274 -10.68164,-0.0273 z m 60.80273,0 -3.33789,10.09375 -10.62695,-0.0547 8.54492,6.35547 -3.55274,10.65625 9,-6.67578 9.08008,6.77148 -3.63281,-10.77734 8.54492,-6.30274 -10.68164,-0.0273 z m 30.80469,26.97851 -3.33789,10.09375 -10.62891,-0.0527 8.54492,6.35547 -3.55078,10.65429 9,-6.67578 9.08008,6.77344 -3.63281,-10.7793 8.54492,-6.30078 -10.68164,-0.0273 z m -243.216798,0.041 -3.337891,10.09375 -10.626953,-0.0527 8.544922,6.35547 -3.552734,10.6543 9,-6.67578 9.080078,6.77343 -3.632813,-10.77929 8.544919,-6.30078 -10.681638,-0.0273 z m 60.804688,0 -3.33789,10.09375 -10.62891,-0.0527 8.54492,6.35547 -3.55078,10.6543 9,-6.67578 9.08008,6.77343 -3.63281,-10.77929 8.54492,-6.30078 -10.68164,-0.0273 z m 60.80469,0 -3.33789,10.09375 -10.62891,-0.0527 8.54492,6.35547 -3.55078,10.6543 8.99805,-6.67578 9.08008,6.77343 -3.63282,-10.77929 8.54688,-6.30078 -10.68164,-0.0273 z m 60.80273,0 -3.33789,10.09375 -10.62695,-0.0527 8.54492,6.35547 -3.55274,10.6543 9,-6.67578 9.08008,6.77343 -3.63281,-10.77929 8.54492,-6.30078 -10.68164,-0.0273 z m -240.642577,7.74023 a 250,250 0 0 0 -8.992187,17.41602 l 6.445312,-4.78125 9.080078,6.77343 -3.632812,-10.77929 8.546875,-6.30078 -10.681641,-0.0273 z m 27.427735,19.24024 -3.337891,10.09375 -10.628906,-0.0547 8.544921,6.35547 -3.550781,10.65625 8.998047,-6.67578 9.080078,6.77148 -3.632812,-10.77734 8.546875,-6.30274 -10.681641,-0.0273 z m 60.802732,0 -3.33789,10.09375 -10.62695,-0.0547 8.54492,6.35547 -3.55273,10.65625 9,-6.67578 9.08007,6.77148 -3.63281,-10.77734 8.54492,-6.30274 -10.68164,-0.0273 z m 60.80469,0 -3.33789,10.09375 -10.62891,-0.0547 8.54492,6.35547 -3.55078,10.65625 9,-6.67578 9.08008,6.77148 -3.63281,-10.77734 8.54492,-6.30274 -10.68164,-0.0273 z m 60.80469,0 -3.33789,10.09375 -10.62891,-0.0547 8.54492,6.35547 -3.55078,10.65625 8.99805,-6.67578 9.08008,6.77148 -3.63282,-10.77734 8.54688,-6.30274 -10.68164,-0.0273 z m 60.80273,0 -3.33789,10.09375 -10.62695,-0.0547 8.54492,6.35547 -3.55274,10.65625 9,-6.67578 9.08008,6.77148 -3.63281,-10.77734 8.54492,-6.30274 -10.68164,-0.0273 z m 30.80469,26.97851 -3.33789,10.09375 -10.62891,-0.0527 8.54492,6.35547 -3.55078,10.65429 9,-6.67578 9.08008,6.77344 -3.63281,-10.7793 L 348,182.9629 337.31836,182.9356 Z m -304.019532,0.041 -3.337891,10.09375 -10.628906,-0.0527 8.544921,6.35547 -3.550781,10.6543 8.998047,-6.67578 9.080078,6.77343 -3.632812,-10.77929 8.546875,-6.30078 -10.681641,-0.0273 z m 60.802734,0 -3.337891,10.09375 -10.626953,-0.0527 8.544922,6.35547 -3.552734,10.6543 9,-6.67578 9.080078,6.77343 -3.632813,-10.77929 8.544919,-6.30078 -10.681638,-0.0273 z m 60.804688,0 -3.33789,10.09375 -10.62891,-0.0527 8.54492,6.35547 -3.55078,10.6543 9,-6.67578 9.08008,6.77343 -3.63281,-10.77929 8.54492,-6.30078 -10.68164,-0.0273 z m 60.80469,0 -3.33789,10.09375 -10.62891,-0.0527 8.54492,6.35547 -3.55078,10.6543 8.99805,-6.67578 9.08008,6.77343 -3.63282,-10.77929 8.54688,-6.30078 -10.68164,-0.0273 z m 60.80273,0 -3.33789,10.09375 -10.62695,-0.0527 8.54492,6.35547 -3.55274,10.6543 9,-6.67578 9.08008,6.77343 -3.63281,-10.77929 8.54492,-6.30078 -10.68164,-0.0273 z m -213.214842,26.98047 -3.337891,10.09375 -10.628906,-0.0547 8.544921,6.35547 -3.550781,10.65625 8.998047,-6.67578 9.080078,6.77148 -3.632812,-10.77734 8.546875,-6.30274 -10.681641,-0.0273 z m 60.802732,0 -3.33789,10.09375 -10.62695,-0.0547 8.54492,6.35547 -3.55273,10.65625 9,-6.67578 9.08007,6.77148 -3.63281,-10.77734 8.54492,-6.30274 -10.68164,-0.0273 z m 60.80469,0 -3.33789,10.09375 -10.62891,-0.0547 8.54492,6.35547 -3.55078,10.65625 9,-6.67578 9.08008,6.77148 -3.63281,-10.77734 8.54492,-6.30274 -10.68164,-0.0273 z m 60.80469,0 -3.33789,10.09375 -10.62891,-0.0547 8.54492,6.35547 -3.55078,10.65625 8.99805,-6.67578 9.08008,6.77148 -3.63282,-10.77734 8.54688,-6.30274 -10.68164,-0.0273 z m 60.80273,0 -3.33789,10.09375 -10.62695,-0.0547 8.54492,6.35547 -3.55274,10.65625 9,-6.67578 9.08008,6.77148 -3.63281,-10.77734 8.54492,-6.30274 -10.68164,-0.0273 z m 30.80469,26.97851 -3.33789,10.09375 -10.62891,-0.0527 8.54492,6.35547 -3.55078,10.65429 9,-6.67578 9.08008,6.77344 -3.63281,-10.7793 8.54492,-6.30078 -10.68164,-0.0273 z m -304.019532,0.041 -3.337891,10.09375 -10.628906,-0.0527 8.544921,6.35547 -3.550781,10.6543 8.998047,-6.67578 9.080078,6.77343 -3.632812,-10.77929 8.546875,-6.30078 -10.681641,-0.0273 z m 60.802734,0 -3.337891,10.09375 -10.626953,-0.0527 8.544922,6.35547 -3.552734,10.6543 9,-6.67578 9.080078,6.77343 -3.632813,-10.77929 8.544919,-6.30078 -10.681638,-0.0273 z m 60.804688,0 -3.33789,10.09375 -10.62891,-0.0527 8.54492,6.35547 -3.55078,10.6543 9,-6.67578 9.08008,6.77343 -3.63281,-10.77929 8.54492,-6.30078 -10.68164,-0.0273 z m 60.80469,0 -3.33789,10.09375 -10.62891,-0.0527 8.54492,6.35547 -3.55078,10.6543 8.99805,-6.67578 9.08008,6.77343 -3.63282,-10.77929 8.54688,-6.30078 -10.68164,-0.0273 z m 60.80273,0 -3.33789,10.09375 -10.62695,-0.0527 8.54492,6.35547 -3.55274,10.6543 9,-6.67578 9.08008,6.77343 -3.63281,-10.77929 8.54492,-6.30078 -10.68164,-0.0273 z" />
</svg>
