<?xml version="1.0" encoding="UTF-8" standalone="no"?>
<svg
   id="flag-icons-fr"
   viewBox="0 0 500 500"
   version="1.1"
   sodipodi:docname="zg.svg"
   width="500"
   height="500"
   inkscape:version="1.4.2 (ebf0e940d0, 2025-05-08)"
   xml:space="preserve"
   xmlns:inkscape="http://www.inkscape.org/namespaces/inkscape"
   xmlns:sodipodi="http://sodipodi.sourceforge.net/DTD/sodipodi-0.dtd"
   xmlns:xlink="http://www.w3.org/1999/xlink"
   xmlns="http://www.w3.org/2000/svg"
   xmlns:svg="http://www.w3.org/2000/svg"><defs
     id="defs3" /><sodipodi:namedview
     id="namedview3"
     pagecolor="#ffffff"
     bordercolor="#000000"
     borderopacity="0.25"
     inkscape:showpageshadow="2"
     inkscape:pageopacity="0.0"
     inkscape:pagecheckerboard="0"
     inkscape:deskcolor="#d1d1d1"
     inkscape:zoom="0.619455"
     inkscape:cx="-1522.3059"
     inkscape:cy="146.09617"
     inkscape:window-width="1920"
     inkscape:window-height="1052"
     inkscape:window-x="0"
     inkscape:window-y="0"
     inkscape:window-maximized="1"
     inkscape:current-layer="flag-icons-fr" /><path
     id="path1"
     style="fill:#78be20;fill-opacity:1;stroke-width:0.999996"
     d="M 250,0 A 250,250 0 0 0 0,250 250,250 0 0 0 250,500 250,250 0 0 0 500,250 250,250 0 0 0 250,0 Z" /><path
     id="path2"
     style="fill:#0090da;fill-opacity:1;stroke-width:0.999996"
     d="M 250,0 A 250,250 0 0 0 14.30664,166.64062 H 485.69336 A 250,250 0 0 0 250,0 Z" /><path
     id="path3"
     style="fill:#fedd00;fill-opacity:1;stroke-width:0.999996"
     d="M 14.30664,333.35938 A 250,250 0 0 0 250,500 250,250 0 0 0 485.69336,333.35938 Z" /><path
     style="fill:#78be20;fill-opacity:1;fill-rule:evenodd;stroke:#ff0000;stroke-width:32;stroke-linecap:round;stroke-linejoin:round;stroke-miterlimit:10;stroke-dasharray:none;stroke-dashoffset:2.6;paint-order:fill markers stroke"
     d="M 249.99998,119.23991 V 380.76012"
     id="path4" /><path
     style="fill:none;fill-opacity:1;fill-rule:evenodd;stroke:#ff0000;stroke-width:32;stroke-linecap:round;stroke-linejoin:round;stroke-miterlimit:10;stroke-dasharray:none;stroke-dashoffset:2.6;paint-order:fill markers stroke"
     d="m 380.76008,139.88698 c -54.35048,94.13779 -207.11053,94.24031 -261.5202,0"
     id="path5"
     sodipodi:nodetypes="cc" /><use
     x="0"
     y="0"
     xlink:href="#path5"
     id="use5"
     transform="rotate(180,249.99998,250.00001)"
     style="stroke-width:1.25926" /></svg>
