<?xml version="1.0" encoding="UTF-8" standalone="no"?>
<!-- Created with Inkscape (http://www.inkscape.org/) -->

<svg
   version="1.1"
   id="svg1"
   width="2304.7617"
   height="397.64719"
   viewBox="0 0 2304.7617 397.64719"
   sodipodi:docname="wheelbarrow.svg"
   inkscape:version="1.4.2 (ebf0e940d0, 2025-05-08)"
   xml:space="preserve"
   xmlns:inkscape="http://www.inkscape.org/namespaces/inkscape"
   xmlns:sodipodi="http://sodipodi.sourceforge.net/DTD/sodipodi-0.dtd"
   xmlns:xlink="http://www.w3.org/1999/xlink"
   xmlns="http://www.w3.org/2000/svg"
   xmlns:svg="http://www.w3.org/2000/svg"><sodipodi:namedview
     id="namedview1"
     pagecolor="#ffffff"
     bordercolor="#000000"
     borderopacity="0.25"
     inkscape:showpageshadow="2"
     inkscape:pageopacity="0.0"
     inkscape:pagecheckerboard="0"
     inkscape:deskcolor="#d1d1d1"
     inkscape:zoom="0.23113743"
     inkscape:cx="884.75503"
     inkscape:cy="248.76975"
     inkscape:window-width="1920"
     inkscape:window-height="1016"
     inkscape:window-x="0"
     inkscape:window-y="36"
     inkscape:window-maximized="1"
     inkscape:current-layer="svg1" /><defs
     id="defs1"><inkscape:path-effect
       effect="fillet_chamfer"
       id="path-effect25"
       is_visible="true"
       lpeversion="1"
       nodesatellites_param="F,0,0,1,0,0,0,25 @ F,0,0,1,0,23.707484,0,25 @ F,0,0,1,0,0,0,25 @ F,0,0,1,0,0,0,25 @ F,0,1,1,0,25.455715,0,25 @ F,0,1,1,0,25.455715,0,25 @ F,0,0,1,0,0,0,25"
       radius="0"
       unit="px"
       method="auto"
       mode="F"
       chamfer_steps="25"
       flexible="false"
       use_knot_distance="true"
       apply_no_radius="true"
       apply_with_radius="true"
       only_selected="true"
       hide_knots="false" /><inkscape:path-effect
       effect="fillet_chamfer"
       id="path-effect23"
       is_visible="true"
       lpeversion="1"
       nodesatellites_param="F,0,0,1,0,0,0,25 @ F,0,0,1,0,23.707484,0,25 @ F,0,0,1,0,0,0,25 @ F,0,0,1,0,0,0,25 @ F,0,1,1,0,25.455715,0,25 @ F,0,1,1,0,25.455715,0,25 @ F,0,0,1,0,0,0,25"
       radius="0"
       unit="px"
       method="auto"
       mode="F"
       chamfer_steps="25"
       flexible="false"
       use_knot_distance="true"
       apply_no_radius="true"
       apply_with_radius="true"
       only_selected="true"
       hide_knots="false" /><inkscape:path-effect
       effect="fillet_chamfer"
       id="path-effect21"
       is_visible="true"
       lpeversion="1"
       nodesatellites_param="F,0,0,1,0,0,0,25 @ F,0,0,1,0,23.707484,0,25 @ F,0,0,1,0,0,0,25 @ F,0,0,1,0,0,0,25 @ F,0,1,1,0,25.455715,0,25 @ F,0,1,1,0,25.455715,0,25 @ F,0,0,1,0,0,0,25"
       radius="0"
       unit="px"
       method="auto"
       mode="F"
       chamfer_steps="25"
       flexible="false"
       use_knot_distance="true"
       apply_no_radius="true"
       apply_with_radius="true"
       only_selected="true"
       hide_knots="false" /><inkscape:path-effect
       effect="fillet_chamfer"
       id="path-effect19"
       is_visible="true"
       lpeversion="1"
       nodesatellites_param="F,0,0,1,0,0,0,25 @ F,0,0,1,0,23.707484,0,25 @ F,0,0,1,0,0,0,25 @ F,0,0,1,0,0,0,25 @ F,0,1,1,0,25.455715,0,25 @ F,0,1,1,0,25.455715,0,25 @ F,0,0,1,0,0,0,25"
       radius="0"
       unit="px"
       method="auto"
       mode="F"
       chamfer_steps="25"
       flexible="false"
       use_knot_distance="true"
       apply_no_radius="true"
       apply_with_radius="true"
       only_selected="true"
       hide_knots="false" /><inkscape:path-effect
       effect="fillet_chamfer"
       id="path-effect16"
       is_visible="true"
       lpeversion="1"
       nodesatellites_param="F,0,0,1,0,0,0,1 @ F,0,0,1,0,11.681389,0,1 @ F,0,1,1,0,20.259342,0,1 @ F,0,0,1,0,11.681389,0,1 @ F,0,0,1,0,11.681389,0,1 @ F,0,0,1,0,11.681389,0,1 @ F,0,0,1,0,11.681389,0,1 @ F,0,0,1,0,11.681389,0,1 @ F,0,0,1,0,0,0,1"
       radius="0"
       unit="px"
       method="auto"
       mode="F"
       chamfer_steps="1"
       flexible="false"
       use_knot_distance="true"
       apply_no_radius="true"
       apply_with_radius="true"
       only_selected="false"
       hide_knots="false" /><inkscape:path-effect
       effect="fillet_chamfer"
       id="path-effect14"
       is_visible="true"
       lpeversion="1"
       nodesatellites_param="F,0,0,1,0,0,0,1 @ F,0,0,1,0,12.027243,0,1 @ F,0,0,1,0,25.420399,0,1 @ F,0,0,1,0,15.929403,0,1 @ F,0,0,1,0,0,0,1"
       radius="0"
       unit="px"
       method="auto"
       mode="F"
       chamfer_steps="1"
       flexible="false"
       use_knot_distance="true"
       apply_no_radius="true"
       apply_with_radius="true"
       only_selected="false"
       hide_knots="false" /><inkscape:path-effect
       effect="fillet_chamfer"
       id="path-effect11"
       is_visible="true"
       lpeversion="1"
       nodesatellites_param="F,0,0,1,0,0,0,1 @ F,0,0,1,0,12.027243,0,1 @ F,0,0,1,0,18.894788,0,1 @ F,0,0,1,0,11.505441,0,1 @ F,0,0,1,0,0,0,1"
       radius="0"
       unit="px"
       method="auto"
       mode="F"
       chamfer_steps="1"
       flexible="false"
       use_knot_distance="true"
       apply_no_radius="true"
       apply_with_radius="true"
       only_selected="false"
       hide_knots="false" /><inkscape:path-effect
       effect="fillet_chamfer"
       id="path-effect10"
       is_visible="true"
       lpeversion="1"
       nodesatellites_param="F,0,0,1,0,0,0,1 @ F,0,0,1,0,11.681389,0,1 @ F,0,1,1,0,19.014467,0,1 @ F,0,0,1,0,11.681389,0,1 @ F,0,0,1,0,11.681389,0,1 @ F,0,0,1,0,11.681389,0,1 @ F,0,0,1,0,11.681389,0,1 @ F,0,0,1,0,11.681389,0,1 @ F,0,0,1,0,0,0,1"
       radius="0"
       unit="px"
       method="auto"
       mode="F"
       chamfer_steps="1"
       flexible="false"
       use_knot_distance="true"
       apply_no_radius="true"
       apply_with_radius="true"
       only_selected="false"
       hide_knots="false" /><inkscape:path-effect
       effect="fillet_chamfer"
       id="path-effect9"
       is_visible="true"
       lpeversion="1"
       nodesatellites_param="F,0,0,1,0,0,0,1 @ F,0,0,1,0,34.482661,0,1 @ F,0,1,1,0,34.482661,0,1 @ F,0,0,1,0,0,0,1"
       radius="0"
       unit="px"
       method="auto"
       mode="F"
       chamfer_steps="1"
       flexible="false"
       use_knot_distance="true"
       apply_no_radius="true"
       apply_with_radius="true"
       only_selected="false"
       hide_knots="false" /><inkscape:path-effect
       effect="bspline"
       id="path-effect8"
       is_visible="true"
       lpeversion="1.3"
       weight="33.333333"
       steps="2"
       helper_size="0"
       apply_no_weight="true"
       apply_with_weight="true"
       only_selected="false"
       uniform="false" /><inkscape:path-effect
       effect="fillet_chamfer"
       id="path-effect7"
       is_visible="true"
       lpeversion="1"
       nodesatellites_param="F,1,1,1,0,0,0,25 @ F,1,0,1,0,0.12469613,0,25 @ F,1,0,1,0,0,0,25 @ F,1,0,1,0,0,0,25 @ F,1,1,1,0,0.42073722,0,25 @ F,1,1,1,0,0,0,25 @ F,1,0,1,0,0,0,25"
       radius="0"
       unit="px"
       method="auto"
       mode="F"
       chamfer_steps="25"
       flexible="true"
       use_knot_distance="true"
       apply_no_radius="true"
       apply_with_radius="true"
       only_selected="true"
       hide_knots="false" /><inkscape:path-effect
       effect="fillet_chamfer"
       id="path-effect4"
       is_visible="true"
       lpeversion="1"
       nodesatellites_param="F,0,0,1,0,0,0,25 @ F,0,0,1,0,23.707484,0,25 @ F,0,0,1,0,0,0,25 @ F,0,0,1,0,0,0,25 @ F,0,1,1,0,25.455715,0,25 @ F,0,1,1,0,25.455715,0,25 @ F,0,0,1,0,0,0,25"
       radius="0"
       unit="px"
       method="auto"
       mode="F"
       chamfer_steps="25"
       flexible="false"
       use_knot_distance="true"
       apply_no_radius="true"
       apply_with_radius="true"
       only_selected="true"
       hide_knots="false" /><inkscape:path-effect
       effect="offset"
       id="path-effect15"
       is_visible="true"
       lpeversion="1.3"
       linejoin_type="miter"
       unit="px"
       offset="-5"
       miter_limit="4"
       attempt_force_join="false"
       update_on_knot_move="true" /><inkscape:path-effect
       effect="offset"
       id="path-effect11-5"
       is_visible="true"
       lpeversion="1.3"
       linejoin_type="miter"
       unit="px"
       offset="-5"
       miter_limit="4"
       attempt_force_join="false"
       update_on_knot_move="true" /><inkscape:path-effect
       effect="offset"
       id="path-effect10-3"
       is_visible="true"
       lpeversion="1.3"
       linejoin_type="miter"
       unit="px"
       offset="-5"
       miter_limit="4"
       attempt_force_join="false"
       update_on_knot_move="true" /><inkscape:path-effect
       effect="offset"
       id="path-effect5"
       is_visible="true"
       lpeversion="1.3"
       linejoin_type="miter"
       unit="px"
       offset="-5"
       miter_limit="4"
       attempt_force_join="false"
       update_on_knot_move="true" /><inkscape:path-effect
       effect="offset"
       id="path-effect18"
       is_visible="true"
       lpeversion="1.2"
       linejoin_type="miter"
       unit="px"
       offset="5"
       miter_limit="4"
       attempt_force_join="false"
       update_on_knot_move="true" /><inkscape:path-effect
       effect="offset"
       id="path-effect12"
       is_visible="true"
       lpeversion="1.2"
       linejoin_type="miter"
       unit="px"
       offset="-5"
       miter_limit="4"
       attempt_force_join="false"
       update_on_knot_move="true" /><inkscape:path-effect
       effect="offset"
       id="path-effect9-5"
       is_visible="true"
       lpeversion="1.2"
       linejoin_type="miter"
       unit="px"
       offset="15"
       miter_limit="4"
       attempt_force_join="false"
       update_on_knot_move="true" /><inkscape:path-effect
       effect="interpolate"
       id="path-effect8-6"
       is_visible="false"
       lpeversion="1"
       trajectory="m 232.24852,394.18623 8e-5,-53.39071"
       equidistant_spacing="false"
       steps="32" /><inkscape:path-effect
       effect="interpolate"
       id="path-effect2"
       is_visible="true"
       lpeversion="1"
       trajectory="m 232.24852,394.18623 8e-5,-53.39071"
       equidistant_spacing="false"
       steps="9" /><inkscape:path-effect
       effect="fillet_chamfer"
       id="path-effect14-2"
       is_visible="true"
       lpeversion="1"
       nodesatellites_param="F,0,0,1,0,0,0,1 @ F,0,0,1,0,0,0,1 @ F,0,0,1,0,0,0,1"
       radius="5"
       unit="px"
       method="auto"
       mode="F"
       chamfer_steps="1"
       flexible="false"
       use_knot_distance="true"
       apply_no_radius="true"
       apply_with_radius="true"
       only_selected="true"
       hide_knots="false" /><inkscape:path-effect
       effect="offset"
       id="path-effect13"
       is_visible="true"
       lpeversion="1.2"
       linejoin_type="miter"
       unit="px"
       offset="10"
       miter_limit="4"
       attempt_force_join="false"
       update_on_knot_move="true" /><inkscape:path-effect
       effect="offset"
       id="path-effect7-9"
       is_visible="true"
       lpeversion="1.2"
       linejoin_type="miter"
       unit="px"
       offset="10"
       miter_limit="4"
       attempt_force_join="false"
       update_on_knot_move="true" /><inkscape:path-effect
       effect="offset"
       id="path-effect6"
       is_visible="true"
       lpeversion="1.2"
       linejoin_type="miter"
       unit="px"
       offset="10"
       miter_limit="4"
       attempt_force_join="false"
       update_on_knot_move="true" /><inkscape:path-effect
       effect="offset"
       id="path-effect4-1"
       is_visible="true"
       lpeversion="1.2"
       linejoin_type="miter"
       unit="px"
       offset="-15"
       miter_limit="4"
       attempt_force_join="true"
       update_on_knot_move="true" /><inkscape:path-effect
       effect="offset"
       id="path-effect3"
       is_visible="true"
       lpeversion="1.2"
       linejoin_type="miter"
       unit="px"
       offset="-4"
       miter_limit="4"
       attempt_force_join="false"
       update_on_knot_move="true" /><inkscape:path-effect
       effect="offset"
       id="path-effect1"
       is_visible="false"
       lpeversion="1.2"
       linejoin_type="miter"
       unit="px"
       offset="-4"
       miter_limit="4"
       attempt_force_join="false"
       update_on_knot_move="true" /></defs><g
     id="g7"
     transform="matrix(-0.31221045,4.8845361e-4,5.7859546e-4,0.31911138,1741.1281,243.87651)"
     style="stroke:#ff6600;stroke-width:3.16814"><path
       style="fill:#ff6600;fill-rule:evenodd;stroke:#ff6600;stroke-width:38.0178;stroke-linecap:round;stroke-linejoin:round;stroke-miterlimit:10;stroke-dasharray:none;stroke-dashoffset:2.6"
       inkscape:path-effect="#path-effect4"
       inkscape:original-d="m 979.52523,151.56529 2.7e-4,-74.473908 h 169.9293 l 90.739,91.023568 V 389.88146 H 979.52523 V 151.56529"
       d="m 979.52523,151.56529 1.8e-4,-50.76642 A 23.70757,23.70757 135.0001 0 1 1003.233,77.091382 h 146.2218 l 90.739,91.023568 v 196.31079 a 25.455715,25.455715 135 0 1 -25.4557,25.45572 l -209.7572,0 a 25.455715,25.455715 45 0 1 -25.45567,-25.45572 l 0,-212.86045"
       id="path4" /><path
       style="fill:none;fill-rule:evenodd;stroke:#ffffff;stroke-width:38.0178;stroke-linecap:round;stroke-linejoin:round;stroke-miterlimit:10;stroke-dasharray:none;stroke-dashoffset:2.6"
       d="m 1049.2173,250.51198 h 120.3889"
       id="path5" /><use
       x="0"
       y="0"
       xlink:href="#path5"
       id="use5"
       transform="translate(0,60)"
       style="stroke:#ff6600;stroke-width:3.16814" /></g><g
     id="g11"
     transform="matrix(0.52863561,0.4658093,0.47465596,-0.53234298,618.77591,-79.266893)"
     style="stroke-width:1.41067"><path
       style="fill:none;fill-rule:evenodd;stroke:#ff6600;stroke-width:16.928;stroke-linecap:round;stroke-linejoin:round;stroke-miterlimit:10;stroke-dasharray:none;stroke-dashoffset:2.6;stroke-opacity:1"
       d="m 849.69731,86.624773 101.03226,45.280367 a 24.872559,24.872559 49.947145 0 1 13.93522,16.57626 l 46.89281,184.68749 a 36.194211,36.194211 103.31977 0 1 -7.7178,32.59839 l -78.48177,90.6463 a 42.066858,42.066858 115.58956 0 0 -9.58679,20.01854 l -3.82421,21.05777"
       id="path9"
       sodipodi:nodetypes="ccccc"
       inkscape:path-effect="#path-effect11"
       inkscape:original-d="m 849.69731,86.624773 112.00764,50.199277 54.50255,214.65853 -98.38044,113.62926 -5.88003,32.37805"
       transform="translate(-22.247309,-97.493883)" /><path
       style="fill:none;fill-rule:evenodd;stroke:#ff6600;stroke-width:16.928;stroke-linecap:round;stroke-linejoin:round;stroke-miterlimit:10;stroke-dasharray:none;stroke-dashoffset:2.6;stroke-opacity:1"
       d="m 762.65553,-106.97463 68.43481,162.056455 a 29.751648,29.751648 45.669696 0 0 15.1964,15.555863 l 109.65871,49.359052 a 38.893901,38.893901 50.28634 0 1 21.82958,26.28111 l 5.76776,23.73126 a 12.775326,12.775326 33.900549 0 0 14.3107,9.6166 l 73.30271,-11.00532 a 14.506964,14.506964 30.303586 0 1 15.7104,9.18176 l 0.3574,0.93805 a 13.912449,13.912449 109.16354 0 1 -5.8734,16.90071 l -69.3973,41.39936 a 15.65535,15.65535 112.45274 0 0 -7.1513,17.30525 l 20.2204,79.46675 a 58.896038,58.896038 64.505529 0 0 9.8638,20.68493 l 42.9062,57.53611"
       id="path10"
       sodipodi:nodetypes="ccccccccc"
       inkscape:path-effect="#path-effect10"
       inkscape:original-d="m 762.65553,-106.97463 72.97916,172.817668 137.64971,61.958232 13.01717,53.55879 96.40653,-14.47402 8.6744,22.77027 -89.4611,53.36856 25.9816,102.10805 49.8894,66.90039"
       transform="translate(-22.247309,-97.493883)" /><circle
       style="fill:none;fill-rule:evenodd;stroke:#ff6600;stroke-width:16.928;stroke-linecap:round;stroke-linejoin:round;stroke-miterlimit:10;stroke-dasharray:none;stroke-dashoffset:2.6;stroke-opacity:1"
       id="path11"
       cx="1055.8511"
       cy="314.76895"
       r="61.96851" /></g><path
     style="fill:#ff0000;fill-rule:evenodd;stroke:#ff6600;stroke-width:12;stroke-linecap:round;stroke-linejoin:round;stroke-miterlimit:10;stroke-dasharray:none;stroke-dashoffset:2.6;stroke-opacity:1"
     d="M 6.0300923,382.65739 H 2298.7315"
     id="path16" /><g
     id="g2"
     transform="matrix(0.45224483,-0.28710593,-0.27742315,-0.43879588,1105.129,420.81126)"
     style="stroke-width:1.89629"><path
       style="fill:#ff0000;fill-rule:evenodd;stroke:none;stroke-width:28.4444;stroke-linecap:round;stroke-linejoin:round;stroke-miterlimit:10;stroke-dasharray:none"
       d="m 510.03132,315.11987 c 0,7.30658 -5.92309,13.22974 -13.22974,13.22971 -7.30653,10e-6 -13.22963,-5.92313 -13.22963,-13.22971 0,-7.30657 5.9231,-13.22973 13.22974,-13.2297 7.30654,-1e-5 13.22963,5.92313 13.22963,13.2297 z"
       id="path11-2-0"
       inkscape:export-filename="limace.svg"
       inkscape:export-xdpi="96"
       inkscape:export-ydpi="96" /><path
       style="fill:#008080;fill-opacity:1;fill-rule:evenodd;stroke:#ff6600;stroke-width:1.89627;stroke-linecap:round;stroke-linejoin:round;stroke-miterlimit:10;stroke-dasharray:none"
       d="m 233.48828,219.20509 c -0.006,-0.0606 -0.0238,-0.1271 -0.0293,-0.1875 l 0.0352,0.35547 c -0.006,-0.0549 8e-5,-0.11296 -0.006,-0.16797 z"
       id="path13-6" /><path
       style="fill:none;fill-rule:evenodd;stroke:#ff6600;stroke-width:18.9629;stroke-linecap:round;stroke-linejoin:round;stroke-miterlimit:10;stroke-dasharray:none"
       d="m 219.34631,111.93343 10.18855,37.47056 -36.55025,-33.22719 14.45592,33.75847 -43.10724,-28.01381 19.04375,31.56823 -45.91445,-21.09519 24.1269,29.63335 -48.35319,-14.92893 27.12604,24.88783 -50.114977,-7.59557 31.309437,21.79784 -50.096131,-0.92203 33.276881,16.52105 -50.058425,6.55186 35.729332,11.95377 -48.716518,13.50133 37.132936,6.95117 -46.437159,20.21087 37.82531,1.80463 -43.108965,26.4491 37.695067,-3.49959 -39.023262,32.22804 36.793603,-8.72325 -33.875001,37.17749 34.490254,-13.71555 -28.75759,41.91273 19.953795,-11.2374 h 1.312768 c 60.744235,0 102.396465,-11.92882 134.332905,-28.69417 30.37857,-15.94755 52.05057,-36.38611 72.80913,-55.69684 -6.4242,-9.36318 -13.69652,-20.86962 -19.54076,-32.30516 -4.06496,-7.95403 -7.57013,-16.05354 -9.21339,-23.32483 -0.82241,-3.63926 -1.29693,-7.45652 -0.7438,-11.31109 0.56678,-3.94944 2.53788,-8.3052 6.32222,-11.17399 0.0137,-0.0104 0.0274,-0.0205 0.0412,-0.0309 3.43108,-2.73286 7.19441,-3.82142 11.15514,-4.04286 3.78548,-0.21166 7.86,0.4068 11.62301,1.10369 7.96415,1.47493 17.24625,4.42669 27.03693,8.03944 16.44039,6.06661 34.86086,14.23624 51.18603,21.46879 13.50097,-3.96323 28.56382,-5.98931 46.09445,-5.34192 l -17.0969,-0.5227 5.78408,-50.39433 -20.45418,31.98124 -1.25451,-50.7131 -15.82353,34.52796 -8.26564,-50.04471 -10.88611,36.40114 -15.12086,-48.40461 -5.73608,37.56996 -21.67965,-45.82363 -0.47813,38.00355 -27.81668,-42.34461 4.79345,37.70192 z"
       id="path23-8-2"
       sodipodi:nodetypes="ccccccccccccccccccccccccccccsscsssscssccccccccccccccccc" /><path
       style="fill:none;fill-opacity:1;fill-rule:evenodd;stroke:#ff6600;stroke-width:18.9629;stroke-linecap:round;stroke-linejoin:round;stroke-miterlimit:10;stroke-dasharray:none"
       d="m 253.35497,216.9192 c 0.009,0.0548 0.0123,0.11153 0.0193,0.16966 l 0.009,0.06 0.009,0.0583 c 0.3602,3.96233 2.0409,9.28545 4.6067,15.00604 2.5658,5.7206 5.97282,11.8699 9.575,17.82868 1.40535,2.32535 5.02288,9.0096 13.80298,20.54333 l 8.39586,11.02661 -10.32225,9.24424 c -29.54105,26.45341 -75.50562,78.44956 -181.688616,90.12539 57.546376,7.96924 139.949436,11.30377 217.198626,1.28192 17.24341,-2.23706 34.23062,-5.14548 50.6313,-8.80287 10.38472,-2.31582 8.32715,-27.59924 44.83945,-55.75825 -7.56834,30.25393 -19.20317,51.48852 13.97625,38.10233 19.39399,-7.65599 36.96168,-16.85189 51.8937,-27.77788 -1.94341,-3.08761 -3.20284,-6.6441 -3.58181,-10.46619 -13.4284,-3.22813 -28.3806,-8.26296 -38.63423,-16.97005 -16.77549,-14.2452 -25.41704,-32.77206 -31.95733,-42.46115 -1.66288,-2.46355 -3.2088,-4.38268 -4.52781,-5.57842 l -0.89458,-0.81063 -0.4268,-1.12769 c -1.18765,-3.14048 -2.33107,-5.76254 -3.47389,-8.16968 l -3.45669,-0.23823 c -15.79158,-1.08459 -30.5919,0.91599 -44.89135,4.95461 l -5.66238,1.6024 -5.24251,-2.68039 c -21.76627,-11.11328 -36.16979,-16.95203 -44.112,-19.82012 -2.11794,-0.76483 -3.77617,-1.3192 -4.99226,-1.70523 -1.82416,-0.57904 -1.83083,-0.5766 -2.545,-0.75407 l -0.21594,-0.0532 -0.21086,-0.072 c -6.23756,-2.15359 -12.16405,-3.92574 -17.40191,-5.1037 -2.75911,-0.62049 -5.36097,-0.95384 -7.90062,-1.36247 -1.18958,-0.19141 -2.14154,-0.27481 -2.81237,-0.29135 z"
       id="path7-6"
       sodipodi:nodetypes="ccccscccccssccccssscccccccsscccsssc" /><path
       id="path9-7-1"
       style="fill:none;fill-rule:evenodd;stroke:#ff6600;stroke-width:18.9629;stroke-linecap:round;stroke-linejoin:round;stroke-miterlimit:10;stroke-dasharray:none"
       d="m 377.14986,280.78584 -18.78674,20.33302"
       sodipodi:nodetypes="cc" /></g></svg>
