<?xml version="1.0" encoding="UTF-8" standalone="no"?>
<!-- Created with Inkscape (http://www.inkscape.org/) -->

<svg
   version="1.1"
   id="svg1"
   width="2304.7617"
   height="397.64719"
   viewBox="0 0 2304.7617 397.64719"
   xml:space="preserve"
   sodipodi:docname="wheelbarrow.svg"
   inkscape:version="1.4.3 (0d15f75042, 2025-12-25)"
   xmlns:inkscape="http://www.inkscape.org/namespaces/inkscape"
   xmlns:sodipodi="http://sodipodi.sourceforge.net/DTD/sodipodi-0.dtd"
   xmlns="http://www.w3.org/2000/svg"
   xmlns:svg="http://www.w3.org/2000/svg"><sodipodi:namedview
   id="namedview1"
   pagecolor="#ffffff"
   bordercolor="#000000"
   borderopacity="0.25"
   inkscape:showpageshadow="2"
   inkscape:pageopacity="0.0"
   inkscape:pagecheckerboard="0"
   inkscape:deskcolor="#d1d1d1"
   inkscape:zoom="0.78576453"
   inkscape:cx="1529.7204"
   inkscape:cy="199.16908"
   inkscape:window-width="1920"
   inkscape:window-height="1052"
   inkscape:window-x="0"
   inkscape:window-y="0"
   inkscape:window-maximized="1"
   inkscape:current-layer="g50" />

  <defs
   id="defs1" />

  <path
   style="fill:#ff0000;fill-rule:evenodd;stroke:#ff7f2a;stroke-width:12;stroke-linecap:round;stroke-linejoin:round;stroke-miterlimit:10;stroke-dasharray:none;stroke-dashoffset:2.6;stroke-opacity:1"
   d="M 6.0300923,342.65739 H 2298.7315"
   id="path16" />
  
  <g
   id="g29"
   transform="matrix(1.4763586,0,0,1.4865492,-836.93045,-179.17194)"
   style="stroke-width:0.675017">

    <g
   id="insi"
   transform="matrix(-0.35406482,-0.30633109,-0.30580907,0.34979327,1737.8556,220.01239)"
   style="stroke-width:14.4729;stroke-dasharray:none"
   inkscape:label="Insi">

      <g
   id="g17"
   transform="matrix(0.87746634,0,0,0.87746634,-626.70262,611.15192)"
   style="stroke-width:16.494;stroke-dasharray:none">

        <path
   style="fill:#ff0000;fill-rule:evenodd;stroke:none;stroke-width:16.494;stroke-linecap:round;stroke-linejoin:round;stroke-miterlimit:10;stroke-dasharray:none"
   d="m 1290.8787,-337.3714 c 0,5.78954 -4.6933,10.48289 -10.4829,10.48287 -5.7895,10e-6 -10.4828,-4.69333 -10.4828,-10.48287 0,-5.78954 4.6933,-10.48289 10.4829,-10.48287 5.7895,-1e-5 10.4828,4.69334 10.4828,10.48287 z"
   id="path11" />

        <g
   id="g15"
   style="stroke-width:16.494;stroke-dasharray:none">

          <path
   style="fill:#008080;fill-opacity:1;fill-rule:evenodd;stroke:#ff6600;stroke-width:14.4729;stroke-linecap:round;stroke-linejoin:round;stroke-miterlimit:10;stroke-dasharray:none"
   d="m 233.48828,219.20509 c -0.006,-0.0606 -0.0238,-0.1271 -0.0293,-0.1875 l 0.0352,0.35547 c -0.006,-0.0549 8e-5,-0.11296 -0.006,-0.16797 z"
   id="path13"
   transform="matrix(1.1396449,0,0,1.1396449,714.21842,-696.49614)" />

          <path
   style="fill:none;fill-rule:evenodd;stroke:#ff6600;stroke-width:16.494;stroke-linecap:round;stroke-linejoin:round;stroke-miterlimit:10;stroke-dasharray:none"
   d="m 964.19531,-614.51758 11.61133,42.70313 -41.6543,-37.86719 16.47461,38.47266 -49.12695,-31.92579 21.70312,35.97657 -52.32617,-24.04102 27.4961,33.77149 -55.10547,-17.01368 30.91406,28.36329 -57.11328,-8.65625 35.68164,24.84179 -57.0918,-1.05078 37.92383,18.82813 -57.04883,7.46679 40.71875,13.62305 -55.51953,15.38672 42.31836,7.92187 -52.92187,23.03321 43.10742,2.05664 -49.12891,30.14258 42.95899,-3.98829 -44.47266,36.72852 41.93164,-9.94141 -38.60547,42.36914 39.30664,-15.63086 -32.77344,47.76563 22.74024,-12.80664 h 1.49609 c 69.22686,0 116.6956,-13.59462 153.0918,-32.70117 34.62079,-18.17454 59.31917,-41.46724 82.97655,-63.47461 -7.3213,-10.67071 -15.60917,-23.78396 -22.26952,-36.81641 -4.63261,-9.06477 -8.62726,-18.29534 -10.5,-26.58203 -0.93725,-4.14746 -1.47804,-8.49778 -0.84766,-12.89062 0.64593,-4.50096 2.89228,-9.46498 7.20508,-12.73438 0.0156,-0.0119 0.0312,-0.0234 0.0469,-0.0352 3.91021,-3.11448 8.19907,-4.35506 12.7129,-4.60742 4.3141,-0.24122 8.9576,0.46361 13.2461,1.25781 9.0763,1.6809 19.6546,5.04486 30.8125,9.16211 18.7362,6.91378 39.729,16.22426 58.3339,24.4668 15.3863,-4.51668 32.5526,-6.82569 52.5313,-6.08789 l -19.4844,-0.5957 6.5918,-57.43164 -23.3105,36.44726 -1.4297,-57.79492 -18.0332,39.34961 -9.4199,-57.0332 -12.4063,41.48437 -17.2324,-55.16406 -6.5371,42.81641 -24.7071,-52.22266 -0.5449,43.31055 -31.70113,-48.25782 5.46283,42.9668 z"
   id="path23-8"
   transform="translate(0,45.585794)" />

          <path
   style="fill:none;fill-opacity:1;fill-rule:evenodd;stroke:#ff6600;stroke-width:16.494;stroke-linecap:round;stroke-linejoin:round;stroke-miterlimit:10;stroke-dasharray:none"
   d="m 1002.9531,-494.87109 c 0.01,0.0625 0.014,0.12711 0.022,0.19336 l 0.01,0.0684 0.01,0.0664 c 0.4105,4.51566 2.3259,10.58212 5.25,17.10156 2.9241,6.51945 6.8069,13.52747 10.9121,20.31836 1.6016,2.65008 5.7243,10.26775 15.7305,23.41211 l 9.5683,12.56641 -11.7637,10.53516 c -33.66631,30.14749 -86.0496,89.40463 -207.0605,102.71093 65.58243,9.08211 159.49266,12.88228 247.5293,1.46094 71.0307,-9.2151 138.2466,-28.42639 183.8711,-61.81055 -2.2148,-3.51877 -3.6501,-7.57191 -4.082,-11.92773 -15.3036,-3.67893 -32.3438,-9.41684 -44.0293,-19.33984 -19.1181,-16.23447 -28.9664,-37.34851 -36.42,-48.39063 -1.8951,-2.80757 -3.6569,-4.9947 -5.1601,-6.35742 l -1.0195,-0.92383 -0.4864,-1.28516 c -1.3535,-3.57903 -2.6566,-6.56725 -3.959,-9.31054 l -3.9394,-0.27149 c -17.9968,-1.23605 -34.8639,1.0439 -51.1602,5.64649 l -6.4531,1.82617 -5.9746,-3.05469 c -24.8053,-12.66518 -41.2202,-19.31929 -50.2715,-22.58789 -2.4137,-0.87163 -4.3035,-1.50342 -5.6894,-1.94336 -2.0789,-0.6599 -2.0865,-0.65712 -2.9004,-0.85937 l -0.2461,-0.0606 -0.2403,-0.082 c -7.1086,-2.45433 -13.8627,-4.47395 -19.832,-5.81641 -3.1444,-0.70713 -6.1096,-1.08703 -9.0039,-1.55273 -1.3557,-0.21814 -2.4406,-0.31318 -3.2051,-0.33203 z"
   id="path7"
   transform="translate(0,45.585794)" />

          <path
   id="path9"
   style="fill:none;fill-rule:evenodd;stroke:#ff6600;stroke-width:16.494;stroke-linecap:round;stroke-linejoin:round;stroke-miterlimit:10;stroke-dasharray:none"
   d="m 1121.339,-388.3015 c 0.018,8.13094 6.6328,14.72913 14.7738,14.73749" />

          <path
   id="path62"
   style="fill:none;fill-rule:evenodd;stroke:#ff6600;stroke-width:16.494;stroke-linecap:round;stroke-linejoin:round;stroke-miterlimit:10;stroke-dasharray:none"
   d="m 1146.4185,-334.03931 c -0.7226,26.65785 20.2069,46.18893 46.7467,43.62404" />
        </g>
      </g>
    </g>

    <g
   id="docs"
   transform="translate(40.640532,-26.907956)">

      <g
   id="g5"
   transform="matrix(-0.00133525,-0.2234467,-0.23268685,0.00139266,1112.1265,506.2066)"
   style="fill:none;stroke:#ff6600;stroke-width:29.6029;stroke-dasharray:none">

        <path
   style="fill:none;fill-rule:evenodd;stroke:#ff6600;stroke-width:29.6029;stroke-linecap:round;stroke-linejoin:round;stroke-miterlimit:10;stroke-dasharray:none;stroke-dashoffset:2.6"
   d="m 978.03994,151.57381 -0.31639,-50.76422 a 23.695772,23.695772 134.65706 0 1 23.55935,-23.843062 l 128.3634,-0.736608 a 46.968976,46.968976 22.53212 0 1 33.7087,13.984722 l 62.9325,63.801948 a 48.707368,48.707368 67.517968 0 1 14.0297,33.90069 l 1.1001,176.50103 a 25.443143,25.443143 134.65706 0 1 -25.2967,25.60129 l -211.1308,1.21157 a 25.468298,25.468298 44.657058 0 1 -25.6139,-25.30915 l -1.33596,-214.34821"
   id="path3" />

        <path
   style="fill:none;fill-rule:evenodd;stroke:#ff6600;stroke-width:29.6029;stroke-linecap:round;stroke-linejoin:round;stroke-miterlimit:10;stroke-dasharray:none;stroke-dashoffset:2.6"
   d="m 1049.2173,250.51198 h 120.3889"
   id="path4" />

        <path
   style="fill:none;fill-rule:evenodd;stroke:#ff6600;stroke-width:29.6029;stroke-linecap:round;stroke-linejoin:round;stroke-miterlimit:10;stroke-dasharray:none;stroke-dashoffset:2.6"
   d="m 1049.2173,310.51198 h 120.3889"
   id="path5" />
      </g>

      <g
   id="g55"
   transform="matrix(-0.22498905,0.0013261,0.00140227,0.23109173,1277.1018,275.61494)"
   style="fill:none;stroke:#ff6600;stroke-width:29.6029;stroke-dasharray:none">

        <path
   style="fill:none;fill-rule:evenodd;stroke:#ff6600;stroke-width:29.6029;stroke-linecap:round;stroke-linejoin:round;stroke-miterlimit:10;stroke-dasharray:none;stroke-dashoffset:2.6"
   d="m 978.03994,151.57381 -0.31639,-50.76422 a 23.695772,23.695772 134.65706 0 1 23.55935,-23.843062 l 128.3634,-0.736608 a 46.968976,46.968976 22.53212 0 1 33.7087,13.984722 l 62.9325,63.801948 a 48.707368,48.707368 67.517968 0 1 14.0297,33.90069 l 1.1001,176.50103 a 25.443143,25.443143 134.65706 0 1 -25.2967,25.60129 l -211.1308,1.21157 a 25.468298,25.468298 44.657058 0 1 -25.6139,-25.30915 l -1.33596,-214.34821"
   id="path53" />

        <path
   style="fill:none;fill-rule:evenodd;stroke:#ff6600;stroke-width:29.6029;stroke-linecap:round;stroke-linejoin:round;stroke-miterlimit:10;stroke-dasharray:none;stroke-dashoffset:2.6"
   d="m 1049.2173,250.51198 h 120.3889"
   id="path54" />

        <path
   style="fill:none;fill-rule:evenodd;stroke:#ff6600;stroke-width:29.6029;stroke-linecap:round;stroke-linejoin:round;stroke-miterlimit:10;stroke-dasharray:none;stroke-dashoffset:2.6"
   d="m 1049.2173,310.51198 h 120.3889"
   id="path55" />
      </g>

      <g
   id="g58"
   transform="matrix(-0.22498905,0.0013261,0.00140227,0.23109173,1343.4811,275.61494)"
   style="fill:none;stroke:#ff6600;stroke-width:29.6029;stroke-dasharray:none">


        <path
   style="fill:none;fill-rule:evenodd;stroke:#ff6600;stroke-width:29.6029;stroke-linecap:round;stroke-linejoin:round;stroke-miterlimit:10;stroke-dasharray:none;stroke-dashoffset:2.6"
   d="m 978.03994,151.57381 -0.31639,-50.76422 a 23.695772,23.695772 134.65706 0 1 23.55935,-23.843062 l 128.3634,-0.736608 a 46.968976,46.968976 22.53212 0 1 33.7087,13.984722 l 62.9325,63.801948 a 48.707368,48.707368 67.517968 0 1 14.0297,33.90069 l 1.1001,176.50103 a 25.443143,25.443143 134.65706 0 1 -25.2967,25.60129 l -211.1308,1.21157 a 25.468298,25.468298 44.657058 0 1 -25.6139,-25.30915 l -1.33596,-214.34821"
   id="path56" />

        <path
   style="fill:none;fill-rule:evenodd;stroke:#ff6600;stroke-width:29.6029;stroke-linecap:round;stroke-linejoin:round;stroke-miterlimit:10;stroke-dasharray:none;stroke-dashoffset:2.6"
   d="m 1049.2173,250.51198 h 120.3889"
   id="path57" />

        <path
   style="fill:none;fill-rule:evenodd;stroke:#ff6600;stroke-width:29.6029;stroke-linecap:round;stroke-linejoin:round;stroke-miterlimit:10;stroke-dasharray:none;stroke-dashoffset:2.6"
   d="m 1049.2173,310.51198 h 120.3889"
   id="path58" />
      </g>

    </g>

    <g
   id="whelbarrow"
   transform="matrix(-0.11965861,0.55116646,-0.56673665,-0.12219651,1540.7557,-239.485)"
   style="stroke:#008080;stroke-width:1.18046">

      <path
   style="fill:none;fill-rule:evenodd;stroke:#008080;stroke-width:11.0679;stroke-linecap:round;stroke-linejoin:round;stroke-miterlimit:10;stroke-dasharray:none;stroke-dashoffset:2.6;stroke-opacity:1"
   d="m 916.51267,441.78639 85.69093,-77.61904 a 31.398901,31.398901 106.79155 0 0 9.354,-30.99846 L 964.66479,148.4814 a 25.34894,25.34894 50.370643 0 0 -13.8613,-16.73797 l -52.14088,-24.30021"
   id="path1"
   transform="matrix(1.0578082,-0.1533878,0.15849607,1.0523946,-132.0712,19.635361)" />

      <circle
   style="fill:none;fill-rule:evenodd;stroke:#008080;stroke-width:11.8045;stroke-linecap:round;stroke-linejoin:round;stroke-miterlimit:10;stroke-dasharray:none;stroke-dashoffset:2.6;stroke-opacity:1"
   id="wb-tire"
   cx="1055.8511"
   cy="314.76895"
   r="61.96851" />

      <path
   style="fill:none;fill-rule:evenodd;stroke:#008080;stroke-width:11.8045;stroke-linecap:round;stroke-linejoin:round;stroke-miterlimit:10;stroke-dasharray:none;stroke-dashoffset:2.6;stroke-opacity:1"
   d="m 857.24541,-173.64656 4.37208,20.03952 a 181.86845,181.86845 72.380445 0 0 10.19315,32.09489 l 61.50125,145.370187 a 20.53951,20.53951 30.906719 0 0 20.79746,12.450337 l 94.70745,-8.710685 a 8.0644246,8.0644246 70.456007 0 1 5.2287,14.729355 l -75.63715,50.697799 a 18.22092,18.22092 106.68309 0 0 -6.65216,22.196587 l 83.78891,199.318"
   id="path36" />
    </g>
  </g>

  <g
   id="g50"
   transform="matrix(1.2433745,0,0,1.2567568,-357.27816,-139.79827)"
   style="stroke-width:0.799969">

    <path
   id="cone-r"
   style="fill:#ff7f2a;fill-rule:evenodd;stroke:#ff7f2a;stroke-width:6.39978;stroke-linecap:round;stroke-linejoin:round;stroke-miterlimit:10;stroke-dashoffset:2.6"
   d="m 1850.7909,241.90818 -5.7829,19.45171 h 18.3087 l -5.7828,-19.45171 z m -9.9848,33.58477 -5.1665,17.37819 h 37.0456 l -5.1665,-17.37819 z m -9.3685,31.51125 -5.1666,17.37819 h 55.7827 l -5.1666,-17.37819 z m -9.3685,31.51125 -5.4547,18.34613 h 75.0959 l -5.4546,-18.34613 z m -20.8338,26.36694 h 105.8549 v 8.00901 h -105.8549 z" />

    <path
   id="cone-l"
   style="fill:#ff7f2a;fill-rule:evenodd;stroke:#ff7f2a;stroke-width:6.39978;stroke-linecap:round;stroke-linejoin:round;stroke-miterlimit:10;stroke-dashoffset:2.6"
   d="m 570.7909,241.90818 -5.7829,19.45171 h 18.3087 l -5.7828,-19.45171 z m -9.9848,33.58477 -5.1665,17.37819 h 37.0456 l -5.1665,-17.37819 z m -9.3685,31.51125 -5.1666,17.37819 h 55.7827 l -5.1666,-17.37819 z m -9.3685,31.51125 -5.4547,18.34613 h 75.0959 l -5.4546,-18.34613 z m -20.8338,26.36694 h 105.8549 v 8.00901 H 521.2353 Z" />

  </g>

    <!-- Pulse size animation -->
    <animate attributeName="r"
             values="10;50;10"
             dur="2s"
             repeatCount="indefinite" />
    
    <!-- Subtle opacity animation -->
    <animate attributeName="opacity"
             values="1;0.25;1"
             dur="2s"
             repeatCount="indefinite" />

</svg>
