<?xml version="1.0" encoding="UTF-8" standalone="no"?>
<svg
   id="flag-icons-fr"
   viewBox="0 0 500 500"
   version="1.1"
   sodipodi:docname="de.svg"
   width="500"
   height="500"
   inkscape:version="1.4.2 (ebf0e940d0, 2025-05-08)"
   xmlns:inkscape="http://www.inkscape.org/namespaces/inkscape"
   xmlns:sodipodi="http://sodipodi.sourceforge.net/DTD/sodipodi-0.dtd"
   xmlns="http://www.w3.org/2000/svg"
   xmlns:svg="http://www.w3.org/2000/svg">
  <defs
     id="defs3" />
  <sodipodi:namedview
     id="namedview3"
     pagecolor="#ffffff"
     bordercolor="#000000"
     borderopacity="0.25"
     inkscape:showpageshadow="2"
     inkscape:pageopacity="0.0"
     inkscape:pagecheckerboard="true"
     inkscape:deskcolor="#d1d1d1"
     inkscape:zoom="0.619455"
     inkscape:cx="402.77341"
     inkscape:cy="272.0133"
     inkscape:window-width="1920"
     inkscape:window-height="1052"
     inkscape:window-x="0"
     inkscape:window-y="0"
     inkscape:window-maximized="1"
     inkscape:current-layer="flag-icons-fr" />
  <path
     id="path1"
     style="fill:#ffd42a;stroke-width:1"
     d="M 14.29297,333.32031 A 250,250 0 0 0 250,500 250,250 0 0 0 485.70703,333.32031 Z" />
  <path
     id="path2"
     style="fill:#000000;stroke-width:1"
     d="M 250,0 A 250,250 0 0 0 14.30664,166.64062 H 485.69336 A 250,250 0 0 0 250,0 Z" />
  <path
     id="path3"
     style="fill:#e1000f;fill-opacity:1;stroke-width:1"
     d="M 14.29297,166.67969 A 250,250 0 0 0 0,250 250,250 0 0 0 14.29297,333.32031 H 485.70703 A 250,250 0 0 0 500,250 250,250 0 0 0 485.70703,166.67969 Z" />
</svg>
